<?xml version="1.0" encoding="utf-8"?>
<!-- Generator: Adobe Illustrator 16.0.0, SVG Export Plug-In . SVG Version: 6.00 Build 0)  -->
<!DOCTYPE svg PUBLIC "-//W3C//DTD SVG 1.1//EN" "http://www.w3.org/Graphics/SVG/1.1/DTD/svg11.dtd">
<svg version="1.1" id="Layer_1" xmlns="http://www.w3.org/2000/svg" xmlns:xlink="http://www.w3.org/1999/xlink" x="0px" y="0px"
	 width="491.39px" height="141.21px" viewBox="0 0 491.39 141.21" style="enable-background:new 0 0 491.39 141.21;"
	 xml:space="preserve">
<g>
	<path d="M171.4,91.66c-0.84,0.62-1.64,1.2-2.74,1.32c-5.62-5.54-12.85-6.88-21.68-8.05c-0.4-0.05-0.81-0.1-1.22-0.15
		c-3.33-0.4-6.77-0.8-9.09-3.83c0.52-1.32,1.34-2.61,2.14-3.86c2.09-3.28,4.26-6.67,1.69-11.23l-0.13-0.22l-0.26-0.03
		c-3.53-0.38-6.14,0.4-7.79,2.32c-2.08,2.44-2.63,6.64-1.69,12.85c-4.04,2.62-7.76,1.89-11.22-2.18
		c-9.19-10.82-11.38-21.03-6.9-32.12c2.51-6.2,5.36-14.48,5.17-23.46c0-0.24,0.01-0.48,0.02-0.73c0.05-1.25,0.12-2.81-1.8-3.54
		l-0.18-0.07l-0.18,0.07c-1.76,0.69-2.19,2.21-2.57,3.55c-0.08,0.27-0.15,0.54-0.24,0.81c-3.61,10.84-5.37,19.86-5.54,28.39
		c-0.03,1.7-0.5,3.43-0.91,4.74c-1.27,4.09-2.73,8.2-4.15,12.17c-2.37,6.66-4.83,13.55-6.44,20.6l-0.04,0.18
		c-0.24,1.07-0.47,2.09-1.53,2.83c-3.72-3.16-7.42-7.24-7.35-13.51c0.02-1.72-0.17-3.48-0.34-5.04c-0.69-6.4-4.31-10.55-10.77-12.32
		c-1.69-0.46-3.39-1.01-5.03-1.55c-1.62-0.52-3.3-1.07-4.97-1.53c-1.85-0.51-2.69-1.54-2.81-3.43c-0.11-1.79-0.26-3.59-0.41-5.38
		c-0.26-3.13-0.53-6.36-0.56-9.54c-0.08-7.72-0.91-15.49-1.71-23.01c-0.26-2.46-0.52-4.92-0.76-7.38c-0.06-0.57-0.19-1.91-2.07-1.91
		c-0.21,0-0.44,0.02-0.7,0.05l-0.48,0.06l0.04,0.48c0.22,2.44,0.45,4.89,0.69,7.33c0.52,5.44,1.06,11.06,1.44,16.61
		c0.39,5.68,0.63,11.25,0.89,17.16c0.1,2.38,0.21,4.78,0.32,7.2c-4.87-0.44-9.77-0.81-14.52-1.17c-15.11-1.14-29.38-2.22-44.13-5.51
		L0,49.43l0.33,0.87c1.25,3.33,3.49,3.64,5.13,3.86l3.37,0.47c6.68,0.93,13.59,1.89,20.42,2.55c6.07,0.59,12.25,1.01,18.22,1.42
		c3.05,0.21,6.1,0.42,9.15,0.65l0.37,0.03c1.63,0.11,2.72,0.27,2.95,1.39c0.2,0.93,0.44,1.88,0.68,2.79
		c0.78,2.97,1.52,5.78,0.74,8.73c-1.25,0.38-2.5,0.39-3.82,0.39c-1.12,0-2.29,0.01-3.57,0.23l-1.66,0.29l1.55,0.67
		c2.63,1.13,4.68,1.63,6.63,1.63c1.66,0,3.22-0.38,4.79-1.15l0.27-0.13l0.01-0.3c0.06-2.1-0.4-4.11-0.85-6.06
		c-0.5-2.18-0.98-4.25-0.78-6.43c2.75-0.14,5.15,0.85,7.46,1.8c0.85,0.35,1.73,0.71,2.61,1.01c7.65,2.6,9.89,5.65,9.6,13.05
		c-0.25,6.25,1.73,11.19,6.04,15.12c3.5,3.19,3.45,6.26,2.22,10.18c-2.4,7.69-4.19,16.14-5.78,27.38c-0.34,2.42-0.06,4.92,0.85,7.62
		c1.05,3.08,2.72,3.73,3.94,3.73c1.14,0,2.38-0.56,3.68-1.66c2.75-2.31,4.68-5.31,6.55-8.21c0.29-0.45,0.57-0.89,0.86-1.33
		c8.03-12.24,7.16-22.28-2.72-31.6c-1.84-1.73-2.34-3.67-1.63-6.29c2.55-9.42,5.11-18.63,8.29-27.7l0.06-0.17
		c0.35-1.01,0.65-1.71,1.47-1.83c0.61,0.6,0.77,1.41,0.89,2.26c0.94,6.5,4.72,11.66,8.19,15.99c2.63,3.28,5.83,4.95,9.52,4.95
		c1.79,0,3.68-0.4,5.62-1.19c1.54-0.63,2.75-0.47,4.16,0.57c2.92,2.15,6.34,2.62,9.65,3.09l0.47,0.07c0.63,0.09,1.27,0.17,1.91,0.26
		c7.57,1.02,14.72,1.98,19.44,8.98l0.24,0.35l0.39-0.18c6.53-3.03,7.25-3.47,7.26-6.72l0-0.47l-0.47-0.03
		C173.34,90.25,172.35,90.97,171.4,91.66z M137.93,68.87c1.22,2.82,0.73,4.68-3.74,8.75C132.67,73.24,133.64,71,137.93,68.87z
		 M113.14,34.06c0.11-0.85,0.27-1.72,0.55-2.61C113.62,32.38,113.4,33.23,113.14,34.06z M95.74,99.85
		c9.12,6.95,11.02,16.69,5.07,26.12c-0.34,0.55-0.68,1.09-1.02,1.64c-1.73,2.78-3.51,5.66-5.82,8.06l-0.23,0.25
		c-1.04,1.09-2.03,2.03-3.46,1.39c-1.23-0.55-1.34-1.7-1.46-3.03l-0.04-0.39c-0.42-4.24,0.48-8.48,1.27-12.22
		c1.11-5.2,2.42-10.74,4.25-17.94c0.09-0.37,0.16-0.75,0.22-1.14C94.69,101.46,94.84,100.48,95.74,99.85z"/>
	<path d="M312.8,69.25c-3.11,0-4.65,1.93-6.15,3.8c-0.69,0.86-1.34,1.68-2.13,2.31c-1.64-2.98-3.91-4.42-6.93-4.42
		c-1.51,0-3.23,0.35-5.42,1.11c-1.57,0.54-3.03,1.29-4.43,2.01l-0.6,0.31c-1.94,0.99-3.95,1.48-5.98,1.48c-3.45,0-6.82-1.5-9.5-4.22
		c0.03-1.11,0.53-2.1,1.06-3.14c0.18-0.37,0.37-0.73,0.53-1.1c1.15-2.6,1.39-5.36,1.53-7.98c0.13-2.36-0.64-3.96-2.29-4.73
		c-1.82-0.85-3.61-0.36-5.47,1.58c-2.18,2.27-3.1,5.08-2.82,8.59c0.12,1.54,0.75,2.86,1.37,4.13c0.42,0.86,0.81,1.68,1.04,2.54
		c-2,1.9-3.81,2.75-5.84,2.75c-1.48,0-3.13-0.43-5.21-1.36c-5.42-2.42-8.42-7.28-11.02-12.04c-1.46-2.67-2.87-5.54-2.75-8.89
		c0.91-0.48,1.82-0.93,2.73-1.38c2.14-1.06,4.35-2.16,6.32-3.54c6.49-4.56,9.49-10.56,8.93-17.83c-0.28-3.6-2.73-6.02-6.1-6.02
		c-0.92,0-1.88,0.18-2.84,0.55c-3.1,1.17-5.6,3.13-7.23,5.65c-3.39,5.25-6.63,10.97-5.84,17.98c0.11,1.01,0.09,1.77-0.37,2.42
		c-5.16,2.5-7.79,3.28-11.79,3.49c-0.67-2.35-1.35-4.71-2.04-7.07c-1.64-5.67-3.34-11.53-4.87-17.34
		c-1.18-4.47-2.22-9.05-3.23-13.49c-0.56-2.46-1.12-4.91-1.7-7.36c-0.6-2.51-1.46-5.16-3.67-7.51L209.56,0l-0.32,0.65
		c-2.65,5.45-4.3,11.07-5.9,16.51c-0.35,1.19-0.7,2.38-1.06,3.56c-0.9,2.97-1.68,6.03-2.43,8.99c-0.98,3.84-1.99,7.81-3.27,11.61
		c-0.82,2.42-1.35,4.95-1.86,7.39c-0.77,3.69-1.57,7.49-3.37,10.95c-2.8-12.32-2.89-24.8-2.71-37.55l0.02-1.2l-0.86,0.84
		c-2.17,2.1-2.19,3.88-2.2,5.32c0,0.17,0,0.34-0.01,0.5c-0.27,7.94-0.02,15.85,0.76,23.52c0.27,2.67,0.58,5.33,0.89,8
		c1,8.57,2.04,17.44,1.56,26.25c-0.01,0.14-0.02,0.28-0.03,0.42c-0.08,0.97-0.2,2.29,1.2,3.25l0.2,0.14l0.23-0.08
		c2.07-0.67,2.01-2.37,1.96-3.61c-0.01-0.32-0.03-0.64,0-0.94c0.13-1.85,0.17-3.72,0.2-5.54c0.07-3.55,0.13-7.22,0.94-10.79
		l0.03-0.13c1.02-4.5,1.06-4.68,5.61-4.86c5.79-0.23,11.42-1.57,16.87-2.87l0.87-0.21c0.48-0.11,0.95-0.26,1.43-0.4
		c0.98-0.3,1.91-0.59,2.86-0.59c0.55,0,1.07,0.1,1.57,0.3c0.06,0.1,0.13,0.2,0.19,0.3c0.17,0.25,0.32,0.48,0.35,0.67
		c0.21,1.56,0.43,3.12,0.65,4.68c1.08,7.68,2.2,15.61,1.95,23.51c-0.08,2.68-0.24,5.52-1.09,8.26c-0.64,2.05-1.8,2.96-3.88,3.02
		c-0.2,0-0.43-0.07-0.69-0.15c-0.3-0.09-0.64-0.19-0.99-0.19c-0.54,0-1,0.25-1.37,0.73l-0.37,0.48l0.55,0.27
		c1.5,0.74,2.88,1.11,4.09,1.11c1.73,0,4.02-0.77,5.13-4.41c0.98-3.19,1.44-5.89,1.48-8.47c0.11-9.37-0.4-16.99-1.61-23.96
		l-0.17-0.95c-0.42-2.28-0.85-4.64-0.04-6.96c1.24-0.41,2.47-0.87,3.66-1.32c2.43-0.92,4.94-1.87,7.6-2.33l0.82,2.13
		c0.66,1.72,1.3,3.39,1.95,5.05c0.75,1.92,1.91,3.6,3.03,5.22c0.48,0.69,0.96,1.39,1.4,2.1c3.6,5.73,8.71,8.89,14.37,8.89
		c3.02,0,6.08-0.88,9.1-2.61c0.43,0.12,0.77,0.42,1.16,0.77c0.3,0.27,0.61,0.55,1,0.75c2.86,1.54,6.66,3.31,10.66,3.31
		c2.88,0,5.55-0.89,8.15-2.72c1.23-0.86,2.75-1.59,4.81-2.28c3.06-1.04,4.85-0.33,6.44,2.62c1,1.85,1.49,3.96,1.5,6.47
		c0.02,2.81,1.65,4.08,4.54,3.42l0.69-0.16l-1.58-2.46c0.25-0.12,0.55-0.14,0.95-0.14c0.26,0,0.52-0.01,0.76-0.05
		c0.73-0.13,1.94-0.34,2.29-1.68l0.12-0.47l-0.46-0.14c-1.85-0.55-2.96-0.98-3.19-1.53c-0.21-0.51,0.19-1.45,1.02-3
		c1.18-2.22,3-3.85,5.11-5.73c0.47-0.42,0.95-0.85,1.43-1.3l0.77-0.71l-1.04-0.15C313.57,69.27,313.17,69.25,312.8,69.25z
		 M269.46,68.13c-1.55-1.93-2.21-3.77-1.95-5.47c0.27-1.74,1.5-3.34,3.66-4.77C272.9,61.46,272.49,63.92,269.46,68.13z
		 M241.37,48.27c-1.08-2.38-0.56-4.57-0.06-6.69c0.09-0.37,0.18-0.75,0.26-1.12c1.03-4.81,3.75-8.96,8.08-12.32
		c1.19-0.92,2.45-1.82,3.77-1.82c0.67,0,1.29,0.23,1.91,0.71c2.02,1.55,2.59,3.48,1.78,6.05C254.72,40.68,249.57,45.65,241.37,48.27
		z M222.46,54.54c-5.52,2.68-18.27,5.34-25.73,5.34c-0.62,0-1.2-0.02-1.71-0.06c3.99-18.84,8.76-35.7,14.58-51.47
		c2.25,4.95,3.38,10.19,4.49,15.28c0.52,2.39,1.05,4.86,1.69,7.26c1.48,5.54,3.03,10.92,4.67,16.63
		C221.12,49.84,221.79,52.18,222.46,54.54z"/>
	<path d="M450.8,78.29c-0.04-0.18-0.18-0.3-0.42-0.35l0-0.01l-0.13-0.02c0,0,0,0,0,0l-0.13-0.02l-0.02-0.05l-0.13,0.03l-0.05-0.01
		l-1.17-0.56l0.19,0.43l-0.34-0.05c-0.14-0.2-0.25-0.49-0.37-0.91c-0.11-0.34-0.21-0.7-0.39-1c-0.31-0.52-0.55-1.1-0.8-1.71
		c-0.58-1.41-1.18-2.86-2.77-3.8l-0.28-0.16l-0.26,0.18c-0.6,0.42-1.19,0.82-1.78,1.22c-1.28,0.87-2.49,1.69-3.66,2.6
		c-2.45,1.9-4.93,2.82-7.59,2.82c-2.27,0-4.7-0.71-7.21-2.1c-3.46-1.92-3.76-2.72-2.5-6.6c0.58-1.77,1.3-3.54,2-5.25
		c1.34-3.28,2.73-6.66,3.22-10.35c0.12-0.95,0.26-1.89,0.4-2.84c0.81-5.58,1.64-11.35,0.17-17.15c-0.04-0.17-0.08-0.35-0.12-0.53
		c-0.25-1.14-0.56-2.57-2.39-2.85c-1.54-0.23-2.78,0.35-3.92,1.75c-0.59,0.73-1.08,1.52-1.43,2.13c-6.39,11.06-7.99,23-4.76,35.48
		c0.53,2.05,0.79,3.15,0.48,3.68c-0.29,0.49-1.26,0.79-2.82,1.2c0.02-0.39,0.06-0.79,0.12-1.23c0.58-4.14-0.27-5.38-4.13-6.02
		c-1.61-0.27-3.23-0.4-4.83-0.4c-9.72,0-18.48,5.01-23.53,13.43c-2.5-1.18-4.74-2.96-6.9-4.69c-3.1-2.48-6.3-5.04-10.39-5.93
		c-4.6-1-9.19-1.67-14.06-2.38c-2.15-0.31-4.32-0.63-6.53-0.98l-1.07-0.17l0.56,0.92c2.59,4.29,2.68,4.43,0.3,7.08
		c-5.28-2.86-9.8-4.19-14.18-4.19c-1.67,0-3.34,0.2-4.98,0.59l-0.34,0.08l-0.04,0.34c-0.75,6.11,4.18,8.19,7.96,9.21
		c3.12,0.85,6.41,0.76,9.17-0.27c3.62-1.35,5.29-4.65,6.9-7.85l0.39-0.77c1.37-0.11,2.72-0.17,3.99-0.17
		c8.86,0,15.94,2.72,21.64,8.33c2.83,2.79,6.09,4.54,10.24,5.52l0.72,0.17l-0.11-0.73c-1.04-6.91,3.39-9.64,8.43-12.04
		c4.03-1.92,8.3-2.17,11.57-2.17c0.98,0,2.04,0.03,3.35,0.08c1.12,0.05,2.01,0.16,2.52,1.08c0.13,0.63-0.14,1.18-0.45,1.81
		c-0.18,0.38-0.37,0.76-0.48,1.19l-0.12,0.45c-0.33,1.17-0.74,2.63,0.54,3.78c0.61,0.55,1.31,0.83,2.09,0.83
		c0.93,0,1.86-0.4,2.64-0.79c0.71-0.36,1.33-0.86,1.93-1.34c0.9-0.72,1.75-1.41,2.9-1.66c4.46,3.69,8.47,5.46,12.98,5.71
		c3.51,0.2,5.97-1.65,8.35-3.43c1.35-1.01,2.63-1.97,4.07-2.56c1.34,1.06,1.79,2.59,2.27,4.21c0.52,1.75,1.05,3.55,2.72,4.91
		l0.46,0.38l0.29-0.52c0.2-0.36,0.42-0.7,0.63-1.02c0.66-1,1.32-2.04,1.05-3.37l0.31,0l0.02-0.24l0.52-0.14L450.8,78.29z
		 M338.02,75.46c-4.41,2.11-8.42,1.09-11.75-2.98c0.73-0.04,1.38-0.05,2-0.05C332.5,72.42,335.46,73.34,338.02,75.46z M417.82,67
		c-0.62-0.1-0.81-0.59-1.06-1.6c-2.44-9.91-0.9-19.84,4.71-30.37c0.54-1.02,1.14-1.53,1.95-1.64C427.01,40.11,423.8,59.46,417.82,67
		z"/>
	<path d="M488.99,76.52c-0.22-0.07-0.45-0.13-0.67-0.21c-1.04-0.38-2.09-0.72-3.14-1.06c-4-1.29-7.78-2.51-10.83-5.62
		c-1.22-1.25-2.77-1.83-4.86-1.83c-1.14,0-2.3,0.17-3.43,0.34c-0.41,0.06-0.81,0.12-1.21,0.17c-2.78,0.35-4.54,1.93-4.82,4.32
		l-0.02,0.16l0.08,0.14c0.76,1.31,1.73,1.95,2.98,1.95c0.79,0,1.61-0.25,2.44-0.53c0.35-0.12,0.71-0.25,1.07-0.38
		c1.07-0.4,2.18-0.81,3.22-0.81c0.58,0,1.1,0.13,1.58,0.39c2.52,1.37,5.23,2.27,7.86,3.15c2.42,0.81,4.93,1.64,7.23,2.83
		c0.17,0.09,0.34,0.18,0.51,0.28c0.68,0.38,1.45,0.82,2.31,0.82c0.66,0,1.28-0.26,1.86-0.77l0.13-0.12l0.03-0.18
		C491.71,77.33,490.14,76.86,488.99,76.52z"/>
</g>
</svg>
