<?xml version="1.0" encoding="utf-8"?>
<!-- Generator: Adobe Illustrator 18.0.0, SVG Export Plug-In . SVG Version: 6.00 Build 0)  -->
<!DOCTYPE svg PUBLIC "-//W3C//DTD SVG 1.1//EN" "http://www.w3.org/Graphics/SVG/1.1/DTD/svg11.dtd">
<svg version="1.1" id="Layer_1" xmlns="http://www.w3.org/2000/svg" xmlns:xlink="http://www.w3.org/1999/xlink" x="0px" y="0px"
	 viewBox="0 0 491.4 141.2" enable-background="new 0 0 491.4 141.2" xml:space="preserve">
<path fill="none" stroke="#231F20" stroke-width="4" stroke-linecap="round" stroke-miterlimit="10" d="M57.9,7.5
	c0,0,1.4,17.5,1.8,23.8c0.4,6,1.2,24.8,2.7,31.5s2.1,8.4,0.4,10.5c-1.7,2.1-5.9,0.2-10.2-0.1"/>
<path fill="none" stroke="#231F20" stroke-width="4" stroke-linecap="round" stroke-miterlimit="10" d="M2.7,52.3c0,0,0,0,10.8,1.2
	S57,57.7,57,57.7s11.5,1.5,17.8,4.8s8.9,2.4,10,9.8s-0.4,12.6,4.1,17s22,17.6,15.4,32.4S94,138.7,90.9,137.9s-5.2-7.9-2.7-16.2
	s8.2-36.9,19.5-63.6s9.1-37.6,7.9-37.5s-13.5,33.9-4.6,48.5S122.2,85,126.6,84s16.8-8.4,12.4-16.9s-12.8,12.8-3.5,16.1
	s28.1,4.9,31.4,10.2s7.8-2.4,7.8-2.4"/>
<path fill="none" stroke="#231F20" stroke-width="4" stroke-linecap="round" stroke-linejoin="round" stroke-miterlimit="10" d="
	M186.7,23c0,0,0.1,17.3,1.3,25s3.7,35.6,2.7,38.2c-1,2.6,0.2-18,5.3-37s13.3-46,13.3-46s4.8,18,9.5,33.3
	c4.7,15.3,13.7,50.7,5.7,63.5c0,0-2.6,2.7-6.6,0.3"/>
<path fill="none" stroke="#231F20" stroke-width="4" stroke-linecap="round" stroke-miterlimit="10" d="M191.3,61.7
	c0,0,18.2,0.3,32.8-5s22.7-8,27.1-11.8c4.3-3.8,11.6-15.1,4.7-19.3c-7-4.3-13.9,9.2-14.4,10.8c-0.5,1.6-4.9,11.4,0.1,22.2
	S253.3,74.2,257,75c3.7,0.8,9.1,0.7,12.7-3.5c3.6-4.2,6.2-14.5,1.6-15.7s-5.4,6.1-5.3,7.6c0.1,1.5,0.9,9.5,7.8,12
	c6.9,2.5,10.4,2.3,13.6,0.6c3.2-1.8,8.5-4.4,11.4-3.4c2.9,1,4,8.5,11,10.7"/>
<path fill="none" stroke="#231F20" stroke-width="4" stroke-linecap="round" stroke-miterlimit="10" d="M312.5,69.8
	c0,0-12.6,7.8-7.6,16.6"/>
<path fill="none" stroke="#231F20" stroke-width="4" stroke-linecap="round" stroke-miterlimit="10" d="M341.4,75.4
	c0,0-4.3-3.1-7.8-3.9c-3.4-0.8-8.3-2-9.1,0s2.8,5.4,5.5,5.9s10.4,1.9,13.4-4.5c3-6.4,0-5.9,0-5.9s-3.3,1.6,3,1.3
	c6.3-0.3,13.4-0.5,18.9,3.1c5.5,3.6,12.4,11.4,14.7,10.2s0.8-7.4,12.4-11.8s17.9-2,17.9-0.5s-2.4,9.7,2.2,6.5c4.6-3.2,7.5-8,7.5-8
	s4.8-8.8,5.7-19.8c0.9-11,0-16.5-2-16.6c-2,0-4.4,3.3-5.3,5.5c-0.9,2.3-6,13.5-3.9,26.1s13.1,15.6,14.2,15.7s6.1,0.2,8.7-2.3
	c2.6-2.6,5.1-4.7,6.2-4s4.3,9.7,5,8.7s1.2-2.2,1.5-3.2"/>
<path fill="none" stroke="#231F20" stroke-width="4" stroke-linecap="round" stroke-linejoin="round" stroke-miterlimit="10" d="
	M471.4,68.8c0,0-12.7,2-8.7,3.7c3.7,1.6,7.2-2.5,9.1-2.4c1.8,0.1,0.1,2.8,5,4.1s12,4.2,12,4.2"/>
</svg>
