<svg version="1.1" id="Layer_1" xmlns="http://www.w3.org/2000/svg" xmlns:xlink="http://www.w3.org/1999/xlink" x="0px" y="0px"
	 width="491.39px" height="141.21px" viewBox="0 0 491.39 141.21" style="enable-background:new 0 0 491.39 141.21;"
	 xml:space="preserve">
<style type="text/css">
<![CDATA[
	.st0{clip-path:url(#SVGID_2_);}
	.st1{clip-path:url(#SVGID_2_);fill:none;stroke:#000000;stroke-miterlimit:10;}
]]>
</style>
<g>
	<defs>
		<rect id="SVGID_1_" width="491.39" height="141.21"/>
	</defs>
	<clipPath id="SVGID_2_">
		<use xlink:href="#SVGID_1_"  style="overflow:visible;"/>
	</clipPath>
	<path class="st0" d="M167.71,97.11c-5.27-7.8-13.62-8.32-21.7-9.46c-3.47-0.49-6.94-0.89-9.89-3.06c-1.42-1.05-2.84-1.36-4.65-0.63
		c-5.68,2.31-10.73,1.18-14.57-3.6c-3.73-4.66-7.19-9.57-8.08-15.75c-0.14-0.97-0.35-1.99-1.22-2.71c-1.46,0.06-1.82,1.35-2.17,2.36
		c-3.21,9.11-5.78,18.41-8.3,27.73c-0.73,2.71-0.27,4.86,1.77,6.79c8.93,8.42,11.06,18.12,2.65,30.96
		c-2.19,3.33-4.22,6.82-7.32,9.43c-3.04,2.56-5.55,1.91-6.83-1.85c-0.8-2.37-1.19-4.84-0.83-7.39c1.31-9.23,2.98-18.4,5.76-27.3
		c1.31-4.19,1.25-7.41-2.36-10.7c-4.15-3.78-6.12-8.65-5.88-14.73c0.31-7.91-2.35-10.96-9.94-13.54c-3.38-1.15-6.58-3.17-10.68-2.81
		c-0.58,4.49,1.72,8.51,1.58,12.94c-3.65,1.8-7.02,1.21-11-0.49c2.89-0.5,5.23,0.13,7.72-0.72c1.22-4.13-0.52-8.06-1.35-12.01
		c-0.36-1.72-2.29-1.7-3.77-1.81c-9.12-0.69-18.26-1.18-27.37-2.06c-7.94-0.77-15.85-1.93-23.76-3.02c-1.7-0.23-3.6-0.54-4.73-3.54
		c19.78,4.4,39.27,4.9,59.28,6.74c-0.41-8.54-0.67-16.75-1.23-24.95c-0.55-8-1.41-15.98-2.13-23.95c1.93-0.25,2.12,0.58,2.21,1.41
		c0.98,10.1,2.37,20.16,2.47,30.34c0.05,4.98,0.67,9.96,0.97,14.94c0.13,2.11,1.1,3.31,3.17,3.88c3.36,0.93,6.64,2.15,10,3.08
		c6.13,1.68,9.71,5.51,10.4,11.9c0.18,1.65,0.35,3.32,0.33,4.98c-0.07,6.26,3.39,10.44,7.81,14.13c1.57-0.9,1.81-2.27,2.09-3.52
		c2.57-11.22,7.19-21.78,10.58-32.73c0.49-1.58,0.9-3.24,0.93-4.88c0.19-9.74,2.46-19.07,5.51-28.24c0.51-1.54,0.67-3.33,2.52-4.05
		c1.92,0.74,1.43,2.42,1.46,3.82c0.17,8.16-2.14,15.87-5.13,23.27c-5.1,12.63-1.14,23.07,6.98,32.64c3.82,4.5,7.9,4.99,12.14,2.1
		c-1.72-10.89,1.12-15.75,8.89-14.91c3.46,6.14-2.19,10.04-3.96,14.92c2.74,3.81,7.07,3.91,10.81,4.4
		c8.02,1.06,15.81,2.28,21.56,8.07c2.74-0.15,3.84-2.82,6.22-2.67C174.67,93.72,174.35,94.03,167.71,97.11 M95.77,99.25
		c-1.75,0.95-1.57,2.84-1.96,4.36c-1.52,5.96-2.98,11.94-4.25,17.96c-0.86,4.06-1.7,8.15-1.28,12.37c0.15,1.52,0.16,3.1,1.79,3.83
		c1.96,0.87,3.11-0.55,4.26-1.74c2.8-2.91,4.78-6.41,6.91-9.78C107.4,116.46,105.34,106.38,95.77,99.25 M133.98,78.5
		c5.12-4.55,5.93-6.65,4.2-10.29C133.1,70.58,131.95,73.21,133.98,78.5 M112.36,37.99c0.61-2.68,2.39-5.14,1.69-8.8
		C112.45,32.41,112.53,35.22,112.36,37.99"/>
	<path class="st1" d="M167.71,97.11c-5.27-7.8-13.62-8.32-21.7-9.46c-3.47-0.49-6.94-0.89-9.89-3.06c-1.42-1.05-2.84-1.36-4.65-0.63
		c-5.68,2.31-10.73,1.18-14.57-3.6c-3.73-4.66-7.19-9.57-8.08-15.75c-0.14-0.97-0.35-1.99-1.22-2.71c-1.46,0.06-1.82,1.35-2.17,2.36
		c-3.21,9.11-5.78,18.41-8.3,27.73c-0.73,2.71-0.27,4.86,1.77,6.79c8.93,8.42,11.06,18.12,2.65,30.96
		c-2.19,3.33-4.22,6.82-7.32,9.43c-3.04,2.56-5.55,1.91-6.83-1.85c-0.8-2.37-1.19-4.84-0.83-7.39c1.31-9.23,2.98-18.4,5.76-27.3
		c1.31-4.19,1.25-7.41-2.36-10.7c-4.15-3.78-6.12-8.65-5.88-14.73c0.31-7.91-2.35-10.96-9.94-13.54c-3.38-1.15-6.58-3.17-10.68-2.81
		c-0.58,4.49,1.72,8.51,1.58,12.94c-3.65,1.8-7.02,1.21-11-0.49c2.89-0.5,5.23,0.13,7.72-0.72c1.22-4.13-0.52-8.06-1.35-12.01
		c-0.36-1.72-2.29-1.7-3.77-1.81c-9.12-0.69-18.26-1.18-27.37-2.06c-7.94-0.77-15.85-1.93-23.76-3.02c-1.7-0.23-3.6-0.54-4.73-3.54
		c19.78,4.4,39.27,4.9,59.28,6.74c-0.41-8.54-0.67-16.75-1.23-24.95c-0.55-8-1.41-15.98-2.13-23.95c1.93-0.25,2.12,0.58,2.21,1.41
		c0.98,10.1,2.37,20.16,2.47,30.34c0.05,4.98,0.67,9.96,0.97,14.94c0.13,2.11,1.1,3.31,3.17,3.88c3.36,0.93,6.64,2.15,10,3.08
		c6.13,1.68,9.71,5.51,10.4,11.9c0.18,1.65,0.35,3.32,0.33,4.98c-0.07,6.26,3.39,10.44,7.81,14.13c1.57-0.9,1.81-2.27,2.09-3.52
		c2.57-11.22,7.19-21.78,10.58-32.73c0.49-1.58,0.9-3.24,0.93-4.88c0.19-9.74,2.46-19.07,5.51-28.24c0.51-1.54,0.67-3.33,2.52-4.05
		c1.92,0.74,1.43,2.42,1.46,3.82c0.17,8.16-2.14,15.87-5.13,23.27c-5.1,12.63-1.14,23.07,6.98,32.64c3.82,4.5,7.9,4.99,12.14,2.1
		c-1.72-10.89,1.12-15.75,8.89-14.91c3.46,6.14-2.19,10.04-3.96,14.92c2.74,3.81,7.07,3.91,10.81,4.4
		c8.02,1.06,15.81,2.28,21.56,8.07c2.74-0.15,3.84-2.82,6.22-2.67C174.67,93.72,174.35,94.03,167.71,97.11z M95.77,99.25
		c-1.75,0.95-1.57,2.84-1.96,4.36c-1.52,5.96-2.98,11.94-4.25,17.96c-0.86,4.06-1.7,8.15-1.28,12.37c0.15,1.52,0.16,3.1,1.79,3.83
		c1.96,0.87,3.11-0.55,4.26-1.74c2.8-2.91,4.78-6.41,6.91-9.78C107.4,116.46,105.34,106.38,95.77,99.25z M133.98,78.5
		c5.12-4.55,5.93-6.65,4.2-10.29C133.1,70.58,131.95,73.21,133.98,78.5z M112.36,37.99c0.61-2.68,2.39-5.14,1.69-8.8
		C112.45,32.41,112.53,35.22,112.36,37.99z"/>
	<path class="st0" d="M191.16,61.04c3.64-6.07,3.72-13.11,5.89-19.55c2.28-6.75,3.64-13.79,5.71-20.62c2.01-6.65,3.73-13.42,6.93-20
		c2.09,2.23,2.93,4.71,3.55,7.29c1.66,6.95,3.12,13.95,4.94,20.86c2.2,8.33,4.68,16.58,7.02,24.8c4.35-0.17,7.06-0.97,12.48-3.61
		c0.68-0.86,0.65-1.89,0.54-2.87c-0.76-6.77,2.31-12.3,5.76-17.66c1.65-2.56,4.11-4.36,6.99-5.45c4.19-1.58,7.92,0.61,8.26,5.04
		c0.57,7.49-2.78,13.21-8.72,17.39c-2.82,1.98-6.09,3.33-9.24,5.02c-0.22,3.54,1.21,6.54,2.79,9.44c2.73,5,5.73,9.79,11.26,12.26
		c5.06,2.26,8.2,1.87,11.82-1.68c-0.51-2.33-2.25-4.31-2.46-6.88c-0.25-3.18,0.49-5.92,2.69-8.21c1.32-1.38,2.94-2.4,4.9-1.47
		c1.72,0.81,2.1,2.51,2.01,4.25c-0.14,2.66-0.38,5.3-1.49,7.8c-0.67,1.5-1.67,2.91-1.63,4.64c4.51,4.69,10.65,5.8,16.21,2.97
		c1.63-0.83,3.22-1.69,4.98-2.29c4.83-1.67,9.21-2.04,12.01,3.59c3.21-2.12,4.12-7.06,9.56-6.28c-2.69,2.48-5.16,4.36-6.64,7.16
		c-1.86,3.5-1.7,4,2.47,5.24c-0.25,0.98-1.06,1.17-1.89,1.32c-0.76,0.13-1.63-0.15-2.29,0.58c0.46,0.71,0.89,1.39,1.44,2.24
		c-2.68,0.61-3.91-0.58-3.92-2.94c-0.02-2.39-0.44-4.62-1.56-6.71c-1.66-3.08-3.74-3.98-7.04-2.86c-1.72,0.58-3.47,1.31-4.94,2.35
		c-6.3,4.43-12.3,2.59-18.28-0.62c-0.86-0.46-1.41-1.44-2.47-1.61c-8.64,5.05-17.45,2.76-22.96-6.01c-1.5-2.39-3.35-4.57-4.39-7.24
		c-0.96-2.45-1.9-4.92-2.92-7.56c-4.27,0.66-8,2.54-11.97,3.81c-1.1,2.84-0.37,5.67,0.1,8.39c1.38,7.91,1.7,15.87,1.6,23.87
		c-0.04,2.87-0.63,5.65-1.45,8.33c-1.26,4.11-4.29,5.08-8.53,3c0.82-1.08,1.8-0.16,2.68-0.19c2.3-0.07,3.62-1.13,4.32-3.37
		c0.86-2.76,1.03-5.58,1.12-8.39c0.3-9.52-1.35-18.88-2.6-28.27c-0.06-0.45-0.45-0.86-0.69-1.3c-2.25-1.01-4.27,0.11-6.32,0.6
		c-5.82,1.38-11.61,2.82-17.65,3.06c-4.98,0.2-5.05,0.72-6.11,5.38c-1.23,5.44-0.76,10.94-1.15,16.4c-0.11,1.47,0.57,3.4-1.61,4.11
		c-1.33-0.92-1.01-2.17-0.95-3.23c0.63-11.55-1.3-22.91-2.45-34.32c-0.79-7.8-1.02-15.62-0.75-23.45c0.05-1.53-0.21-3.28,2.06-5.48
		C187.95,35.81,188.1,48.44,191.16,61.04 M223.06,54.8c-2.31-8.15-4.66-16.07-6.79-24.04c-2.1-7.86-2.97-16.07-6.72-23.69
		c-6.49,17.39-11.32,35.1-15.13,53.2C201.05,61.01,216.9,57.98,223.06,54.8 M241.11,48.88c8.23-2.52,13.87-7.35,16.47-15.65
		c0.89-2.83,0.17-4.96-1.95-6.59c-2.33-1.79-4.54-0.25-6.3,1.11c-4.15,3.22-7.13,7.38-8.26,12.61
		C240.5,43.02,239.47,45.76,241.11,48.88 M271.36,57.18c-5.2,3.18-5.76,7.31-1.88,11.76C273.07,64.11,273.56,61.37,271.36,57.18"/>
	<path class="st1" d="M191.16,61.04c3.64-6.07,3.72-13.11,5.89-19.55c2.28-6.75,3.64-13.79,5.71-20.62c2.01-6.65,3.73-13.42,6.93-20
		c2.09,2.23,2.93,4.71,3.55,7.29c1.66,6.95,3.12,13.95,4.94,20.86c2.2,8.33,4.68,16.58,7.02,24.8c4.35-0.17,7.06-0.97,12.48-3.61
		c0.68-0.86,0.65-1.89,0.54-2.87c-0.76-6.77,2.31-12.3,5.76-17.66c1.65-2.56,4.11-4.36,6.99-5.45c4.19-1.58,7.92,0.61,8.26,5.04
		c0.57,7.49-2.78,13.21-8.72,17.39c-2.82,1.98-6.09,3.33-9.24,5.02c-0.22,3.54,1.21,6.54,2.79,9.44c2.73,5,5.73,9.79,11.26,12.26
		c5.06,2.26,8.2,1.87,11.82-1.68c-0.51-2.33-2.25-4.31-2.46-6.88c-0.25-3.18,0.49-5.92,2.69-8.21c1.32-1.38,2.94-2.4,4.9-1.47
		c1.72,0.81,2.1,2.51,2.01,4.25c-0.14,2.66-0.38,5.3-1.49,7.8c-0.67,1.5-1.67,2.91-1.63,4.64c4.51,4.69,10.65,5.8,16.21,2.97
		c1.63-0.83,3.22-1.69,4.98-2.29c4.83-1.67,9.21-2.04,12.01,3.59c3.21-2.12,4.12-7.06,9.56-6.28c-2.69,2.48-5.16,4.36-6.64,7.16
		c-1.86,3.5-1.7,4,2.47,5.24c-0.25,0.98-1.06,1.17-1.89,1.32c-0.76,0.13-1.63-0.15-2.29,0.58c0.46,0.71,0.89,1.39,1.44,2.24
		c-2.68,0.61-3.91-0.58-3.92-2.94c-0.02-2.39-0.44-4.62-1.56-6.71c-1.66-3.08-3.74-3.98-7.04-2.86c-1.72,0.58-3.47,1.31-4.94,2.35
		c-6.3,4.43-12.3,2.59-18.28-0.62c-0.86-0.46-1.41-1.44-2.47-1.61c-8.64,5.05-17.45,2.76-22.96-6.01c-1.5-2.39-3.35-4.57-4.39-7.24
		c-0.96-2.45-1.9-4.92-2.92-7.56c-4.27,0.66-8,2.54-11.97,3.81c-1.1,2.84-0.37,5.67,0.1,8.39c1.38,7.91,1.7,15.87,1.6,23.87
		c-0.04,2.87-0.63,5.65-1.45,8.33c-1.26,4.11-4.29,5.08-8.53,3c0.82-1.08,1.8-0.16,2.68-0.19c2.3-0.07,3.62-1.13,4.32-3.37
		c0.86-2.76,1.03-5.58,1.12-8.39c0.3-9.52-1.35-18.88-2.6-28.27c-0.06-0.45-0.45-0.86-0.69-1.3c-2.25-1.01-4.27,0.11-6.32,0.6
		c-5.82,1.38-11.61,2.82-17.65,3.06c-4.98,0.2-5.05,0.72-6.11,5.38c-1.23,5.44-0.76,10.94-1.15,16.4c-0.11,1.47,0.57,3.4-1.61,4.11
		c-1.33-0.92-1.01-2.17-0.95-3.23c0.63-11.55-1.3-22.91-2.45-34.32c-0.79-7.8-1.02-15.62-0.75-23.45c0.05-1.53-0.21-3.28,2.06-5.48
		C187.95,35.81,188.1,48.44,191.16,61.04z M223.06,54.8c-2.31-8.15-4.66-16.07-6.79-24.04c-2.1-7.86-2.97-16.07-6.72-23.69
		c-6.49,17.39-11.32,35.1-15.13,53.2C201.05,61.01,216.9,57.98,223.06,54.8z M241.11,48.88c8.23-2.52,13.87-7.35,16.47-15.65
		c0.89-2.83,0.17-4.96-1.95-6.59c-2.33-1.79-4.54-0.25-6.3,1.11c-4.15,3.22-7.13,7.38-8.26,12.61
		C240.5,43.02,239.47,45.76,241.11,48.88z M271.36,57.18c-5.2,3.18-5.76,7.31-1.88,11.76C273.07,64.11,273.56,61.37,271.36,57.18z"
		/>
	<path class="st0" d="M449.77,78.35c0.86,1.9-0.46,3.01-1.41,4.72c-3.16-2.57-1.99-7.01-5.23-9.3c-4.25,1.57-7.11,6.36-12.47,6.05
		c-5.1-0.29-9.17-2.64-12.87-5.74c-2.24,0.36-3.43,2.2-5.19,3.08c-1.39,0.7-2.86,1.22-4.17,0.04c-1.18-1.07-0.6-2.44-0.26-3.74
		c0.29-1.1,1.22-2.03,0.92-3.3c-0.63-1.23-1.79-1.36-2.98-1.41c-5.18-0.21-10.37-0.14-15.16,2.14c-5.12,2.44-9.8,5.38-8.71,12.57
		c-4.27-1.01-7.39-2.82-10-5.39c-7.33-7.21-16.25-9.14-26.3-8.28c-1.77,3.43-3.33,7.2-7.15,8.62c-2.79,1.04-5.96,1.04-8.86,0.25
		c-4.3-1.17-8.26-3.26-7.59-8.67c6.9-1.65,13.15,0.44,19.16,3.74c2.9-3.21,2.9-3.21,0.03-7.97c7.15,1.14,13.93,1.91,20.56,3.36
		c6.97,1.52,11.24,7.99,17.6,10.78c5.82-10.07,16.66-15.06,28.07-13.17c3.58,0.59,4.26,1.59,3.71,5.46
		c-0.07,0.49-0.11,0.98-0.13,1.47c0,0.13,0.15,0.27,0.23,0.41c4.21-1.08,4.22-1.25,3.09-5.59c-3.19-12.32-1.68-24.05,4.71-35.11
		c0.42-0.72,0.86-1.43,1.38-2.07c0.88-1.08,1.97-1.79,3.46-1.57c1.74,0.26,1.79,1.74,2.11,3c1.69,6.66,0.3,13.2-0.58,19.8
		c-0.74,5.54-3.51,10.33-5.21,15.51c-1.34,4.08-0.97,5.14,2.73,7.19c5.27,2.93,10.39,3.09,15.35-0.76c1.7-1.32,3.51-2.48,5.42-3.8
		c2.1,1.25,2.34,3.56,3.4,5.34c0.57,0.96,0.38,2.94,2.48,2.38L449.77,78.35z M423.69,32.86c-1.32,0.04-2.1,0.86-2.67,1.93
		c-5.17,9.69-7.44,19.82-4.76,30.72c0.23,0.93,0.47,1.98,1.77,2C424.37,59.83,427.67,39.56,423.69,32.86 M325.3,72.04
		c3.78,5.15,8.5,6.3,13.61,3.53C334.96,71.95,330.49,71.69,325.3,72.04"/>
	<path class="st1" d="M449.77,78.35c0.86,1.9-0.46,3.01-1.41,4.72c-3.16-2.57-1.99-7.01-5.23-9.3c-4.25,1.57-7.11,6.36-12.47,6.05
		c-5.1-0.29-9.17-2.64-12.87-5.74c-2.24,0.36-3.43,2.2-5.19,3.08c-1.39,0.7-2.86,1.22-4.17,0.04c-1.18-1.07-0.6-2.44-0.26-3.74
		c0.29-1.1,1.22-2.03,0.92-3.3c-0.63-1.23-1.79-1.36-2.98-1.41c-5.18-0.21-10.37-0.14-15.16,2.14c-5.12,2.44-9.8,5.38-8.71,12.57
		c-4.27-1.01-7.39-2.82-10-5.39c-7.33-7.21-16.25-9.14-26.3-8.28c-1.77,3.43-3.33,7.2-7.15,8.62c-2.79,1.04-5.96,1.04-8.86,0.25
		c-4.3-1.17-8.26-3.26-7.59-8.67c6.9-1.65,13.15,0.44,19.16,3.74c2.9-3.21,2.9-3.21,0.03-7.97c7.15,1.14,13.93,1.91,20.56,3.36
		c6.97,1.52,11.24,7.99,17.6,10.78c5.82-10.07,16.66-15.06,28.07-13.17c3.58,0.59,4.26,1.59,3.71,5.46
		c-0.07,0.49-0.11,0.98-0.13,1.47c0,0.13,0.15,0.27,0.23,0.41c4.21-1.08,4.22-1.25,3.09-5.59c-3.19-12.32-1.68-24.05,4.71-35.11
		c0.42-0.72,0.86-1.43,1.38-2.07c0.88-1.08,1.97-1.79,3.46-1.57c1.74,0.26,1.79,1.74,2.11,3c1.69,6.66,0.3,13.2-0.58,19.8
		c-0.74,5.54-3.51,10.33-5.21,15.51c-1.34,4.08-0.97,5.14,2.73,7.19c5.27,2.93,10.39,3.09,15.35-0.76c1.7-1.32,3.51-2.48,5.42-3.8
		c2.1,1.25,2.34,3.56,3.4,5.34c0.57,0.96,0.38,2.94,2.48,2.38L449.77,78.35z M423.69,32.86c-1.32,0.04-2.1,0.86-2.67,1.93
		c-5.17,9.69-7.44,19.82-4.76,30.72c0.23,0.93,0.47,1.98,1.77,2C424.37,59.83,427.67,39.56,423.69,32.86z M325.3,72.04
		c3.78,5.15,8.5,6.3,13.61,3.53C334.96,71.95,330.49,71.69,325.3,72.04z"/>
	<path class="st0" d="M490.84,79.5c-1.54,1.36-2.9,0.23-4.12-0.4c-4.83-2.49-10.28-3.37-15.08-5.97c-2.04-1.11-4.25,0.1-6.27,0.77
		c-1.87,0.62-3.53,1.07-4.84-1.2c0.29-2.49,2.29-3.62,4.39-3.88c3.06-0.39,6.61-1.34,9.08,1.17c3.97,4.04,9.23,5.01,14.16,6.79
		C489.55,77.28,491.2,77.33,490.84,79.5"/>
	<path class="st1" d="M490.84,79.5c-1.54,1.36-2.9,0.23-4.12-0.4c-4.83-2.49-10.28-3.37-15.08-5.97c-2.04-1.11-4.25,0.1-6.27,0.77
		c-1.87,0.62-3.53,1.07-4.84-1.2c0.29-2.49,2.29-3.62,4.39-3.88c3.06-0.39,6.61-1.34,9.08,1.17c3.97,4.04,9.23,5.01,14.16,6.79
		C489.55,77.28,491.2,77.33,490.84,79.5z"/>
	<path class="st0" d="M449.89,78.4h0.29c0.34,0.05-0.04,0-0.42-0.06L449.89,78.4z"/>
	<path class="st1" d="M449.89,78.4h0.29c0.34,0.05-0.04,0-0.42-0.06L449.89,78.4z"/>
</g>
</svg>
